<?xml version="1.0" encoding="UTF-8" standalone="no"?>
<!-- Created with Inkscape (http://www.inkscape.org/) -->

<svg
   xmlns:dc="http://purl.org/dc/elements/1.1/"
   xmlns:cc="http://creativecommons.org/ns#"
   xmlns:rdf="http://www.w3.org/1999/02/22-rdf-syntax-ns#"
   xmlns:svg="http://www.w3.org/2000/svg"
   xmlns="http://www.w3.org/2000/svg"
   xmlns:xlink="http://www.w3.org/1999/xlink"
   xmlns:sodipodi="http://sodipodi.sourceforge.net/DTD/sodipodi-0.dtd"
   xmlns:inkscape="http://www.inkscape.org/namespaces/inkscape"
   version="1.0"
   width="600"
   height="660"
   id="svg2"
   style="enable-background:new"
   inkscape:version="0.48.2 r9819"
   sodipodi:docname="czernin.svg">
  <sodipodi:namedview
     pagecolor="#ffffff"
     bordercolor="#666666"
     borderopacity="1"
     objecttolerance="10"
     gridtolerance="10"
     guidetolerance="10"
     inkscape:pageopacity="0"
     inkscape:pageshadow="2"
     inkscape:window-width="1366"
     inkscape:window-height="745"
     id="namedview239"
     showgrid="false"
     inkscape:zoom="0.8530303"
     inkscape:cx="300"
     inkscape:cy="330"
     inkscape:window-x="-8"
     inkscape:window-y="-8"
     inkscape:window-maximized="1"
     inkscape:current-layer="svg2" />
  <desc
     id="desc4">Flag of Canton of Valais (Wallis)</desc>
  <metadata
     id="metadata1223">
    <rdf:RDF>
      <cc:Work
         rdf:about="">
        <dc:format>image/svg+xml</dc:format>
        <dc:type
           rdf:resource="http://purl.org/dc/dcmitype/StillImage" />
        <dc:title></dc:title>
      </cc:Work>
    </rdf:RDF>
  </metadata>
  <defs
     id="defs6">
    <linearGradient
       id="linearGradient3673">
      <stop
         id="stop3675"
         style="stop-color:#ffffff;stop-opacity:0.3137255"
         offset="0" />
      <stop
         id="stop3677"
         style="stop-color:#ffffff;stop-opacity:0.25098041"
         offset="0.30000001" />
      <stop
         id="stop3679"
         style="stop-color:#6b6b6b;stop-opacity:0.1254902"
         offset="0.60000002" />
      <stop
         id="stop3681"
         style="stop-color:#000000;stop-opacity:0.1254902"
         offset="1" />
    </linearGradient>
    <radialGradient
       cx="221.44487"
       cy="226.33101"
       r="300"
       fx="221.44487"
       fy="226.33101"
       id="radialGradient3199"
       xlink:href="#linearGradient3673"
       gradientUnits="userSpaceOnUse"
       gradientTransform="matrix(1.353218,0,0,1.348928,-77.62939,-85.746784)" />
    <clipPath
       id="clipPath3410">
      <path
         d="m 299.99998,8.1765002 -298.49999,0 0,258.5517798 c 0,285.45164 298.5,397.772 298.5,397.772 z"
         id="path3412"
         style="color:#000000;fill:#2b5df2;fill-opacity:1;fill-rule:evenodd;stroke:none;stroke-width:3;marker:none;visibility:visible;display:inline;overflow:visible;enable-background:accumulate" />
    </clipPath>
    <radialGradient
       cx="221.44487"
       cy="226.33101"
       r="300"
       fx="221.44487"
       fy="226.33101"
       id="radialGradient3199-1"
       xlink:href="#linearGradient3673-5"
       gradientUnits="userSpaceOnUse"
       gradientTransform="matrix(1.353218,0,0,1.348928,-77.62939,-85.746784)" />
    <linearGradient
       id="linearGradient3673-5">
      <stop
         id="stop3675-2"
         style="stop-color:#ffffff;stop-opacity:0.3137255"
         offset="0" />
      <stop
         id="stop3677-7"
         style="stop-color:#ffffff;stop-opacity:0.25098041"
         offset="0.28800002" />
      <stop
         id="stop3679-6"
         style="stop-color:#6b6b6b;stop-opacity:0.1254902"
         offset="0.72000003" />
      <stop
         id="stop3681-1"
         style="stop-color:#000000;stop-opacity:0.1254902"
         offset="1" />
    </linearGradient>
    <radialGradient
       inkscape:collect="always"
       xlink:href="#linearGradient3673-5"
       id="radialGradient11238"
       gradientUnits="userSpaceOnUse"
       gradientTransform="matrix(1.6084467,0,0,1.4880896,-134.14848,-117.24337)"
       cx="221.44487"
       cy="226.33101"
       fx="221.44487"
       fy="226.33101"
       r="300" />
    <radialGradient
       inkscape:collect="always"
       xlink:href="#linearGradient12329"
       id="radialGradient11238-1"
       gradientUnits="userSpaceOnUse"
       gradientTransform="matrix(1.2954296,0,0,1.1186875,-64.832436,-33.636226)"
       cx="228.15715"
       cy="248.07231"
       fx="228.15715"
       fy="248.07231"
       r="300" />
    <linearGradient
       id="linearGradient12329">
      <stop
         offset="0"
         style="stop-color:#ffffff;stop-opacity:0.3137255"
         id="stop12331" />
      <stop
         offset="0.21600001"
         style="stop-color:#ffffff;stop-opacity:0.25098041"
         id="stop12333" />
      <stop
         offset="0.72000003"
         style="stop-color:#6b6b6b;stop-opacity:0.1254902"
         id="stop12335" />
      <stop
         offset="1"
         style="stop-color:#000000;stop-opacity:0.1254902"
         id="stop12337" />
    </linearGradient>
  </defs>
  <g
     id="layer4" />
  <g
     id="layer2" />
  <g
     transform="matrix(2.181893,0,0,2.181893,-714.00751,-98.691525)"
     id="g4685" />
  <g
     id="g12057">
    <path
       inkscape:connector-curvature="0"
       style="color:#000000;fill:#e20909;fill-opacity:1;fill-rule:evenodd;stroke:#000000;stroke-width:3;stroke-linecap:butt;stroke-linejoin:miter;stroke-miterlimit:4;stroke-opacity:1;stroke-dasharray:none;stroke-dashoffset:0;marker:none;visibility:visible;display:inline;overflow:visible;enable-background:accumulate"
       id="path3206"
       d="m 299.49998,2.1765002 -298.49999,0 0,258.5517798 c 0,285.45164 298.5,397.772 298.5,397.772 z" />
    <path
       inkscape:connector-curvature="0"
       style="color:#000000;fill:#2b5df2;fill-opacity:1;fill-rule:evenodd;stroke:#000000;stroke-width:3;marker:none;visibility:visible;display:inline;overflow:visible;enable-background:accumulate"
       id="path3393"
       d="m 299.5,2.1765002 298.49999,0 0,258.5517798 c 0,285.45164 -298.5,397.772 -298.5,397.772 z" />
    <g
       id="g4792"
       clip-path="url(#clipPath3410)"
       transform="matrix(-1,0,0,1,601.49996,-6)">
      <rect
         y="101.9248"
         x="-46.626877"
         height="94.180801"
         width="401.172"
         id="rect3216"
         style="color:#000000;fill:#ffffff;fill-opacity:1;fill-rule:nonzero;stroke:#000000;stroke-width:3;marker:none;visibility:visible;display:inline;overflow:visible;enable-background:accumulate" />
      <use
         height="660"
         width="600"
         transform="translate(-3.9417976e-8,188.36158)"
         id="use3218"
         xlink:href="#rect3216"
         y="0"
         x="0" />
      <use
         x="0"
         y="0"
         xlink:href="#rect3216"
         id="use3220"
         transform="translate(-3.9417976e-8,376.72318)"
         width="600"
         height="660" />
    </g>
    <g
       id="g4"
       transform="matrix(0.52498107,0,0,0.52514157,201.15781,-135.84035)">
      <path
         transform="matrix(1.8729707,0,0,1.1282956,-372.45875,379.04068)"
         d="m 365.92555,230.65082 c 0,11.96426 -29.56427,21.66321 -66.03364,21.66321 -36.46938,0 -66.03365,-9.69895 -66.03365,-21.66321 0,-11.96426 29.56427,-21.66321 66.03365,-21.66321 36.46937,0 66.03364,9.69895 66.03364,21.66321 z"
         sodipodi:ry="21.663212"
         sodipodi:rx="66.033646"
         sodipodi:cy="230.65082"
         sodipodi:cx="299.89191"
         id="path11135"
         style="color:#000000;fill:#000000;fill-opacity:1;fill-rule:nonzero;stroke:none;stroke-width:2.57681966;marker:none;visibility:visible;display:inline;overflow:visible;enable-background:accumulate"
         sodipodi:type="arc" />
      <use
         id="use6"
         x="0"
         y="0"
         width="371.26001"
         height="322.63"
         transform="matrix(-1,0,0,1,378.46,0)"
         xlink:href="#g4686" />
      <g
         transform="matrix(2.3815,0,0,2.3815,-261.42,-709.15)"
         id="g4686">
        <path
           style="fill:#e20909;fill-opacity:1;stroke-opacity:0"
           inkscape:connector-curvature="0"
           id="path9"
           d="m 189.33,551.52 -49.169,-5.9032 c -34.178,-50.382 -9.9635,-61.299 49.072,-50.16" />
        <g
           
           id="g11">
          <path
             style="color:#000000;fill:#fcef3c;fill-opacity:1;fill-rule:nonzero;stroke:#000000;stroke-width:1.59944534;stroke-linecap:butt;stroke-linejoin:miter;stroke-miterlimit:4;stroke-opacity:1;stroke-dasharray:none;stroke-dashoffset:0;marker:none;visibility:visible;display:inline;overflow:visible;enable-background:accumulate"
             inkscape:connector-curvature="0"
             id="path13"
             d="m 140.22,545.85 22.63,2.333 c -22.192,-14.38 -36.331,-29.316 -34.498,-39.548 2.0362,-11.369 15.15,-17.507 30.999,-12.478 10.748,2.6397 20.99,2.9542 29.874,1.8664 v -5.1326 c -9.8165,-0.19742 -20.29,-0.92329 -30.107,-4.1994 -31.754,-8.5386 -59.503,15.732 -18.897,57.159 z" />
        </g>
        <g
           id="g15">
          <circle
             transform="matrix(1.3253446,0,0,1.3253446,-43.536878,-172.92006)"
             cx="123.43"
             cy="524.84998"
             r="4.5706"
             id="circle40"
             d="m 128.0006,524.84998 c 0,2.52427 -2.04633,4.5706 -4.5706,4.5706 -2.52427,0 -4.5706,-2.04633 -4.5706,-4.5706 0,-2.52428 2.04633,-4.5706 4.5706,-4.5706 2.52427,0 4.5706,2.04632 4.5706,4.5706 z"
             sodipodi:cx="123.43"
             sodipodi:cy="524.84998"
             sodipodi:rx="4.5706"
             sodipodi:ry="4.5706"
             style="fill:#ffffff;stroke:#000000;stroke-width:1.20681465;stroke-linecap:round;stroke-linejoin:round" />
          <use
             style="stroke-width:1.90453935"
             height="660"
             width="600"
             transform="translate(-2.703673,-12.436896)"
             id="use10730"
             xlink:href="#circle40"
             y="0"
             x="0" />
          <use
             style="stroke-width:1.90453935"
             x="0"
             y="0"
             xlink:href="#circle40"
             id="use10732"
             transform="translate(-0.54073462,-25.144159)"
             width="600"
             height="660" />
          <use
             style="stroke-width:1.90453935"
             height="660"
             width="600"
             transform="translate(8.1110189,-34.742198)"
             id="use10734"
             xlink:href="#circle40"
             y="0"
             x="0" />
          <use
             style="stroke-width:1.90453935"
             x="0"
             y="0"
             xlink:href="#circle40"
             id="use10736"
             transform="translate(20.277547,-39.473626)"
             width="600"
             height="660" />
          <use
             style="stroke-width:2.02010465"
             height="660"
             width="600"
             transform="matrix(0.9427925,0,0,0.9427925,39.785002,-9.3692326)"
             id="use10738"
             xlink:href="#circle40"
             y="0"
             x="0" />
          <use
             style="stroke-width:2.07035518"
             x="0"
             y="0"
             xlink:href="#circle40"
             id="use10740"
             transform="matrix(0.9199095,0,0,0.9199095,54.428276,5.0247204)"
             width="600"
             height="660" />
          <use
             height="660"
             width="600"
             transform="matrix(0.82709654,0,0,0.82709654,75.844466,55.970155)"
             id="use10744"
             xlink:href="#circle40"
             y="0"
             x="0"
             style="stroke-width:2.30268097" />
        </g>
      </g>
      <ellipse
         style="fill:#0051f6;fill-rule:evenodd;stroke:#000000;stroke-width:4.53566027;stroke-linecap:square;stroke-linejoin:bevel"
         sodipodi:ry="26.024"
         sodipodi:rx="26.587"
         sodipodi:cy="424.32001"
         sodipodi:cx="189.23"
         d="m 215.817,424.32001 c 0,14.37266 -11.90341,26.024 -26.587,26.024 -14.6836,0 -26.587,-11.65134 -26.587,-26.024 0,-14.37266 11.9034,-26.024 26.587,-26.024 14.68359,0 26.587,11.65134 26.587,26.024 z"
         id="ellipse42"
         cx="189.23"
         cy="424.32001"
         ry="26.024"
         rx="26.587" />
      <rect
         style="color:#000000;fill:#fcef3c;fill-opacity:1;fill-rule:nonzero;stroke:#000000;stroke-width:3.80907869;stroke-linecap:butt;stroke-linejoin:miter;stroke-miterlimit:4;stroke-opacity:1;stroke-dasharray:none;stroke-dashoffset:0;marker:none;visibility:visible;display:inline;overflow:visible;enable-background:accumulate"
         id="rect44"
         x="183.42"
         y="395.54999"
         width="11.61"
         height="21.872999" />
      <path
         sodipodi:nodetypes="cccccc"
         style="color:#000000;fill:#fcef3c;fill-opacity:1;fill-rule:nonzero;stroke:#000000;stroke-width:3.80907869;stroke-linecap:butt;stroke-linejoin:miter;stroke-miterlimit:4;stroke-opacity:1;stroke-dasharray:none;stroke-dashoffset:0;marker:none;visibility:visible;display:inline;overflow:visible;enable-background:accumulate"
         inkscape:connector-curvature="0"
         id="path46"
         transform="translate(3.5996,351.99)"
         d="m 167.88,100.74 -13.11,104.96 30.86,1.48 30.85,-1.48 -13.1,-104.96 c -5.39864,-4.84649 -33.57332,-3.59852 -35.5,0 z" />
      <g
         id="g48"
         transform="matrix(2.3815,0,0,2.3815,-261.42,-709.15)">
        <g
           id="rand">
          <path
             style="color:#000000;fill:#fcef3c;fill-opacity:1;fill-rule:nonzero;stroke:#000000;stroke-width:1.59944534;stroke-linecap:butt;stroke-linejoin:miter;stroke-miterlimit:4;stroke-opacity:1;stroke-dasharray:none;stroke-dashoffset:0;marker:none;visibility:visible;display:inline;overflow:visible;enable-background:accumulate"
             inkscape:connector-curvature="0"
             id="path51"
             d="m 170.91707,531.69707 c 2.5917,-11.25 7.2924,-24.936 7.0111,-45.696 -1.1105,-3.7916 0.93423,-3.6026 3.088,-2.3727 1.6926,0.96649 1.6079,1.9145 1.5969,3.5338 -0.18852,17.827 -3.1667,30.685 -7.9103,43.215 z" />
        </g>
        <use
           id="use53"
           x="0"
           y="0"
           width="371.26001"
           height="322.63"
           transform="matrix(-1,0,0,1,378.46,0)"
           xlink:href="#rand" />
        <use
           x="0"
           y="0"
           xlink:href="#circle40"
           id="use11079"
           transform="translate(69.179614,-37.603826)"
           width="600"
           height="660" />
        <use
           height="660"
           width="600"
           transform="translate(69.179614,-29.739165)"
           id="use11077"
           xlink:href="#circle40"
           y="0"
           x="0"
           />
        <use
           x="0"
           y="0"
           xlink:href="#circle40"
           id="use11075"
           transform="translate(69.179614,-18.72863)"
           width="600"
           height="660" />
        <use
           height="660"
           width="600"
           transform="translate(69.179614,-7.7181018)"
           id="use10730-7"
           xlink:href="#circle40"
           y="0"
           x="0"
           />
      </g>
      <g
         transform="matrix(2.2091585,0,0,2.2091585,-228.8079,-626.28042)"
         id="g4410">
        <path
           sodipodi:nodetypes="ccccccccccccc"
           style="fill:#ffffff;stroke-opacity:0"
           inkscape:connector-curvature="0"
           id="path64"
           d="m 137.24,574.29884 c 17.512,-3.71152 34.881,-3.84933 51.985,-4.59244 0.78405,-14.54321 0.0611,-37.52178 0,-56.9066 -3.0165,1.6868 -6.0391,2.4213 -9.4508,8.1719 -6.8593,4.2144 -10.331,10.287 -10.775,18.021 -1.9442,-23.275 -28.524,-23.838 -26.787,-7.4236 -3.3899,1.2801 -4.8961,4.11 -4.01,8.9083 -10.638,-18.566 -26.75,-12.741 -24.221,1.6497 5.6396,3.2898 9.11,1.5597 13.153,1.1548 3.4731,5.0886 4.3044,12.44545 3.5584,16.895 -1.9993,4.73396 -2.4938,8.55619 -0.40989,11.026 0.93424,2.30419 3.16993,3.77615 6.9568,3.09588 z" />
        <path
           style="fill:#000000;stroke-opacity:0"
           inkscape:connector-curvature="0"
           id="path66"
           d="m 113.83,542.13 c 5.837,2.3546 12.093,0.68097 15.158,-3.9592 4.8392,4.3575 8.4948,10.084 11.629,16.414 -3.7914,-4.7986 -7.2387,-11.193 -12.03,-13.362 -1.3652,1.7353 -7.9699,5.1253 -14.757,0.90732 z" />
        <path
           style="fill:#000000;stroke-opacity:0"
           inkscape:connector-curvature="0"
           id="path68"
           d="m 143.02,544.26396 c -0.81611,-3.6437 0.29131,-5.6134 2.2456,-6.8462 4.7493,0.70365 8.3746,-0.46009 10.346,-4.3717 4.1341,1.8106 8.7146,3.0209 10.186,8.4134 0.5105,-2.7209 -1.5682,-6.6569 -6.7369,-7.9185 -3.8733,-2.3209 -3.4912,-4.0165 -2.9674,-5.6914 -0.78273,-0.10814 -1.876,1.0114 -1.4436,2.8045 0.0814,0.68383 -4.2627,-0.88235 -4.0902,-0.74236 0.25183,0.2044 3.208,1.8971 3.208,1.8971 -0.75762,4.5223 -4.3429,4.5854 -8.2607,4.1242 -2.5745,1.7715 -5.132,3.5528 -2.4862,8.3309 z" />
        <path
           sodipodi:nodetypes="ccccccc"
           style="fill:#000000;stroke-opacity:0"
           inkscape:connector-curvature="0"
           id="path70"
           d="m 174.26249,541.92243 c 2.62456,-5.03621 3.36936,-10.87972 11.30487,-12.05027 3.15862,1.92573 4.96135,0.27644 6.50241,0.29378 -3.47196,-0.66658 -6.28155,-1.24661 -7.83835,-3.76438 l 0.52876,2.32211 c -9.78165,1.97659 -8.9618,7.95081 -10.49769,13.19885 z" />
        <path
           sodipodi:nodetypes="cccccccccccc"
           style="fill:none;stroke:#000000;stroke-width:1.72422171;stroke-linecap:round;stroke-miterlimit:4;stroke-dasharray:none"
           inkscape:connector-curvature="0"
           id="path74"
           d="m 189.23791,512.88217 c -2.9376,1.5975 -6.13689,2.49054 -9.45869,8.08974 -6.8593,4.2144 -10.331,10.287 -10.775,18.021 -1.9442,-23.275 -28.524,-23.838 -26.787,-7.4236 -3.3899,1.2801 -4.8961,4.11 -4.01,8.9083 -10.638,-18.566 -26.75,-12.741 -24.221,1.6497 5.6396,3.2898 9.11,1.5597 13.153,1.1548 3.4731,5.0886 4.3044,12.4454 3.5584,16.89495 -1.9993,4.73395 -2.4938,8.55619 -0.40989,11.026 0.93424,2.30419 3.16993,3.77615 6.9568,3.09588 17.352,-3.67745 34.562,-3.82505 51.515,-4.57182 0.15681,-0.007 0.28881,-0.0205 0.47037,-0.0205" />
        <g
           transform="matrix(1,0,0,0.91715699,-16.859686,47.290767)"
           id="g11242">
          <path
             sodipodi:nodetypes="ccscsc"
             style="fill:#ffffff;stroke:none"
             d="m 147.39778,544.61448 6.86921,5.98281 c 0,0 1.11469,1.85768 -3.64356,4.11264 -4.75825,2.25497 -2.84703,7.01338 -2.84703,7.01338 0,0 -3.99881,-2.85949 -3.21866,-6.85451 0.86618,-4.4355 2.84004,-10.25432 2.84004,-10.25432 z"
             id="path11240"
             inkscape:connector-curvature="0" />
          <path
             d="m 155.01737,550.17413 c 0.27084,3.11269 -4.17632,3.88923 -5.41592,9.27903 -1.23959,5.38979 -4.51681,8.37817 -7.77843,9.3321 -0.45966,0.48221 -0.32589,0.20578 -0.0799,-0.21418 3.55484,-5.60213 3.14551,-5.88864 1.96901,-11.97735 -1.17651,-6.08872 2.27243,-5.6449 3.86178,-12.55955 0.41876,3.13229 -0.28867,4.04009 -1.69102,6.99799 -1.02149,2.15459 0.0282,5.78175 1.4634,7.42429 1.22794,-1.90957 1.50382,-3.38033 3.42534,-4.6217 2.81144,-0.95567 3.55301,-2.12673 4.2457,-3.66063 z"
             id="path76"
             inkscape:connector-curvature="0"
             style="fill:#000000;stroke-opacity:0"
             sodipodi:nodetypes="czcczcsccc" />
        </g>
        <use
           height="660"
           width="600"
           transform="matrix(1.0583098,-0.34721408,0.34742642,1.0583098,-177.87667,8.4413058)"
           id="use11246"
           xlink:href="#g11242"
           y="0"
           x="0" />
      </g>
      <use
         id="use78"
         x="0"
         y="0"
         width="371.26001"
         height="322.63"
         transform="matrix(-1,0,0,1,378.46,-1.688788e-8)"
         xlink:href="#g4410" />
      <path
         style="color:#000000;fill:#fcef3c;fill-opacity:1;fill-rule:nonzero;stroke:#000000;stroke-width:3.80907869;stroke-linecap:butt;stroke-linejoin:miter;stroke-miterlimit:4;stroke-opacity:1;stroke-dasharray:none;stroke-dashoffset:0;marker:none;visibility:visible;display:inline;overflow:visible;enable-background:accumulate"
         inkscape:connector-curvature="0"
         id="path82"
         d="m 189.23,415.25 c -7.2306,0.10741 -20.665,0.89562 -26.839,2.5118 -6.1324,2.2593 -2.3287,9.6002 0,9.1819 8.7973,-1.052 17.953,-1.5897 26.839,-1.5861 8.8854,-0.002 18.046,0.53413 26.843,1.5861 2.3287,0.41832 6.1324,-6.9226 0,-9.1819 -6.1737,-1.6161 -19.613,-2.4043 -26.843,-2.5118 z" />
      <path
         style="color:#000000;fill:#fcef3c;fill-opacity:1;fill-rule:nonzero;stroke:#000000;stroke-width:3.80907869;stroke-linecap:butt;stroke-linejoin:miter;stroke-miterlimit:4;stroke-opacity:1;stroke-dasharray:none;stroke-dashoffset:0;marker:none;visibility:visible;display:inline;overflow:visible;enable-background:accumulate"
         inkscape:connector-curvature="0"
         id="path84"
         d="m 178.68,353.98 v 2.8885 l 4.5444,14.112 -15.238,-4.9026 h -2.8885 l 0.0512,10.549 -0.0512,10.549 h 2.8885 l 16.303,-5.2468 -5.6096,17.424 v 2.8885 l 10.549,-5.5119 10.554,5.5119 v -2.8885 l -5.6096,-17.424 16.299,5.2468 h 2.8932 l -0.0558,-10.549 0.0558,-10.549 h -2.8932 l -15.233,4.9026 4.5444,-14.112 V 353.98 l -10.554,0.0512 z" />
      <use
         height="660"
         width="600"
         transform="matrix(2.4745238,-0.81185069,0.8123472,2.4745239,-584.65961,-685.68566)"
         id="use11246-6"
         xlink:href="#g11242"
         y="0"
         x="0"
         style="enable-background:new" />
    </g>
    <path
       inkscape:connector-curvature="0"
       style="color:#000000;fill:#e20909;fill-opacity:1;fill-rule:evenodd;stroke:#000000;stroke-width:3;stroke-linecap:butt;stroke-linejoin:miter;stroke-miterlimit:4;stroke-opacity:1;stroke-dasharray:none;stroke-dashoffset:0;marker:none;visibility:visible;display:inline;overflow:visible;enable-background:accumulate"
       id="path2875-8"
       d="m 300.49996,457.88016 c 0,0 116.23584,-43.83655 116.23584,-155.24301 0,-111.40645 0,-100.90795 0,-100.90795 l -232.47163,0 0,100.90795 c 0,111.40646 116.23579,155.24301 116.23579,155.24301 z" />
    <path
       sodipodi:nodetypes="csccscc"
       inkscape:connector-curvature="0"
       id="rect11155"
       d="m 184.27262,277.60223 0,25.02533 c 0,27.71657 7.20833,51.25162 18.01746,70.96913 l 196.41984,0 c 10.80913,-19.71751 18.01745,-43.25256 18.01745,-70.96913 l 0,-25.02533 z"
       style="color:#000000;fill:#ffffff;fill-opacity:1;fill-rule:nonzero;stroke:#000000;stroke-width:3;stroke-linecap:butt;stroke-linejoin:miter;stroke-miterlimit:4;stroke-opacity:1;stroke-dasharray:none;stroke-dashoffset:0;marker:none;visibility:visible;display:inline;overflow:visible;enable-background:accumulate" />
    <g
       id="flowRoot11177"
       style="font-size:80px;font-style:normal;font-variant:normal;font-weight:normal;font-stretch:normal;text-align:start;line-height:0%;letter-spacing:0px;word-spacing:0px;text-anchor:start;fill:#000000;fill-opacity:1;stroke:none;font-family:Copperplate Gothic Bold;-inkscape-font-specification:Copperplate Gothic Bold"
       transform="matrix(1.3802484,0,0,1.3802484,-113.8147,-27.92645)">
      <path
         inkscape:connector-curvature="0"
         id="path11200"
         style="font-weight:bold;text-align:center;text-anchor:middle;font-family:Garamond Premr Pro;-inkscape-font-specification:Garamond Premr Pro Bold"
         d="m 245.21492,231.71691 c -1.23499,-0.01 -2.58498,-0.05 -4.04995,-0.12 -1.46499,-0.07 -3.07496,-0.10995 -4.82993,-0.11999 -0.65333,5e-5 -1.18666,0.08 -1.59998,0.23999 -0.41333,0.16005 -0.62666,0.40005 -0.63999,0.71999 -0.0167,0.27672 0.11666,0.52338 0.39999,0.73999 0.28333,0.21672 0.81665,0.42338 1.59998,0.62 1.73997,0.42171 2.99995,1.01836 3.77995,1.78997 0.77998,0.77171 1.19998,1.82836 1.25999,3.16996 0.0767,1.0367 0.12332,2.74334 0.13999,5.11994 0.0167,2.37667 0.0233,5.44329 0.02,9.19988 -0.0117,7.78492 -0.0883,13.49484 -0.22999,17.12978 -0.14168,3.63496 -0.27834,6.00493 -0.41,7.10991 0.045,0.55333 -0.18501,1.20665 -0.68999,1.95997 -0.505,0.75333 -1.79498,1.40665 -3.86995,1.95997 -0.65,0.16667 -1.16999,0.39333 -1.55998,0.67999 -0.39,0.28667 -0.59,0.59333 -0.59999,0.91999 -0.007,0.24333 0.16666,0.43666 0.51999,0.58 0.35332,0.14333 0.92665,0.21666 1.71998,0.21999 0.93165,-0.02 2.32829,-0.1 4.18994,-0.23999 1.86163,-0.14 3.63828,-0.22 5.32994,-0.24 1.51663,0.01 2.90328,0.05 4.15994,0.12 1.25663,0.07 2.40328,0.11 3.43996,0.12 0.7583,-0.01 1.32162,-0.11 1.68998,-0.3 0.3683,-0.19 0.55163,-0.40999 0.54999,-0.65999 -0.005,-0.36333 -0.17502,-0.67666 -0.50999,-0.93999 -0.33502,-0.26333 -0.80502,-0.45666 -1.40999,-0.57999 -2.49665,-0.47499 -4.04329,-1.12498 -4.63994,-1.94998 -0.59667,-0.82498 -0.86334,-1.85497 -0.79999,-3.08996 -0.0306,-0.88788 -0.0761,-2.41872 -0.13629,-4.59253 -0.0603,-2.17379 -0.11162,-4.30314 -0.15407,-6.38807 -0.0425,-2.08489 -0.0524,-3.43795 -0.0296,-4.0592 0.0466,-0.17998 0.13331,-0.37998 0.25999,-0.6 0.12665,-0.21997 0.25332,-0.33997 0.38,-0.35999 0.9333,-0.11498 2.12662,-0.18498 3.57995,-0.21 1.4533,-0.025 2.60661,-0.035 3.45996,-0.03 0.8683,0.007 1.85162,0.0534 2.94996,0.14 1.09829,0.0867 1.90162,0.17336 2.40997,0.26 0.75163,0.14502 1.38829,0.45501 1.90998,0.92999 0.52162,0.47501 0.97828,1.445 1.36998,2.90996 0.16496,0.56001 0.35496,0.98 0.56999,1.25998 0.21497,0.28002 0.42496,0.42001 0.62999,0.42 0.39996,-0.0217 0.69996,-0.21832 0.89999,-0.59 0.19996,-0.37164 0.29996,-0.7883 0.3,-1.24998 -0.007,-0.7933 -0.0334,-1.58663 -0.08,-2.37997 -0.0467,-0.7933 -0.0734,-2.10662 -0.08,-3.93995 0.0166,-0.77496 0.0833,-1.66495 0.2,-2.66997 0.11663,-1.00495 0.18329,-1.79494 0.19999,-2.36996 0.005,-0.4933 -0.045,-0.90663 -0.14999,-1.23999 -0.10504,-0.3333 -0.29503,-0.50663 -0.57,-0.51999 -0.34836,0.01 -0.63169,0.19003 -0.84999,0.53999 -0.21836,0.35003 -0.44169,0.81002 -0.66999,1.37998 -0.51502,1.32835 -1.06502,2.25167 -1.64998,2.76997 -0.58502,0.51835 -1.47501,0.82168 -2.66996,0.90999 -1.12502,0.0734 -2.89499,0.10669 -5.30993,0.1 -2.41499,-0.007 -4.48496,-0.0133 -6.20992,-0.02 -0.20835,0.0117 -0.39168,-0.21164 -0.55,-0.67 -0.15835,-0.4583 -0.24168,-1.22162 -0.24999,-2.28997 9.7e-4,-1.84488 0.0168,-4.01275 0.0474,-6.50362 0.0306,-2.49079 0.0701,-4.79495 0.11852,-6.9125 0.0484,-2.11746 0.0997,-3.53867 0.15407,-4.26365 0.003,-0.14328 0.11665,-0.33661 0.34,-0.57999 0.22331,-0.24329 0.53664,-0.39662 0.93999,-0.45999 1.08163,-0.0883 3.01827,-0.13162 5.80992,-0.13 2.79161,0.002 4.98824,0.0984 6.58992,0.28999 1.27495,0.14005 2.24493,0.54004 2.90996,1.19999 0.66495,0.66004 1.29495,1.94002 1.88998,3.83995 0.24329,0.80336 0.51662,1.41669 0.81998,1.83997 0.3033,0.42337 0.61663,0.6367 0.93999,0.64 0.36663,-0.025 0.65329,-0.25496 0.85999,-0.69 0.20663,-0.43495 0.29329,-0.92494 0.26,-1.46998 -0.055,-1.3716 -0.12504,-2.72825 -0.21,-4.06994 -0.085,-1.34161 -0.095,-2.59825 -0.03,-3.76995 -0.015,-0.24828 -0.12504,-0.45161 -0.33,-0.61 -0.20503,-0.15828 -0.41503,-0.22161 -0.62999,-0.18999 -0.51336,0.0101 -2.12667,0.05 -4.83993,0.11999 -2.71333,0.07 -5.36663,0.11005 -7.9599,0.12 z" />
      <path
         inkscape:connector-curvature="0"
         id="path11202"
         style="font-weight:bold;text-align:center;text-anchor:middle;font-family:Garamond Premr Pro;-inkscape-font-specification:Garamond Premr Pro Bold"
         d="m 291.46601,257.07659 c -0.002,3.54664 -0.0383,7.03326 -0.11,10.45986 -0.0717,3.42664 -0.16834,5.91327 -0.28999,7.45991 -0.0833,1.83331 -0.39667,3.16663 -0.93999,3.99994 -0.54333,0.83333 -1.77665,1.44665 -3.69995,1.83998 -1.59998,0.33333 -2.39997,0.78666 -2.39997,1.35998 -0.008,0.29167 0.14833,0.54833 0.46999,0.76999 0.32166,0.22166 0.85832,0.33833 1.60998,0.35 1.39831,-0.007 2.48163,-0.0333 3.24996,-0.08 0.76831,-0.0467 1.71163,-0.0733 2.82996,-0.08 1.18664,0.02 2.93328,0.1 5.23994,0.24 2.30661,0.13999 4.53325,0.21999 6.67991,0.23999 0.50997,-0.003 0.98996,-0.0967 1.43998,-0.27999 0.44997,-0.18334 0.68997,-0.43667 0.71999,-0.75999 0.003,-0.28667 -0.16335,-0.55333 -0.49999,-0.79999 -0.33669,-0.24666 -0.86335,-0.43333 -1.57998,-0.56 -2.50332,-0.47165 -4.09663,-1.20831 -4.77994,-2.20997 -0.68334,-1.00165 -1.03667,-2.55829 -1.05999,-4.66994 -0.08,-1.34163 -0.14001,-3.09828 -0.18,-5.26993 -0.04,-2.17162 -0.06,-4.38826 -0.06,-6.64991 -0.005,-7.67488 0.025,-13.2248 0.09,-16.64979 0.065,-3.42491 0.19498,-5.71488 0.38999,-6.86991 0.0533,-1.09827 0.32665,-2.10159 0.81999,-3.00996 0.49331,-0.90828 1.84662,-1.6116 4.05995,-2.10997 0.64664,-0.12162 1.15329,-0.29829 1.51998,-0.53 0.36664,-0.23161 0.5533,-0.50827 0.55999,-0.82999 -0.003,-0.31994 -0.17669,-0.55994 -0.51999,-0.71999 -0.34336,-0.15994 -0.83668,-0.23994 -1.47998,-0.23999 -1.33667,0.0101 -2.62332,0.05 -3.85996,0.11999 -1.23666,0.07 -2.80331,0.11005 -4.69993,0.12 -1.38833,-0.01 -2.91164,-0.05 -4.56995,-0.12 -1.65832,-0.07 -3.04163,-0.10995 -4.14994,-0.11999 -0.57333,5e-5 -1.04666,0.08 -1.41998,0.23999 -0.37333,0.16005 -0.56666,0.40005 -0.57999,0.71999 -0.0167,0.28505 0.13666,0.55505 0.45999,0.80999 0.32333,0.25505 0.91665,0.46505 1.77998,0.62999 2.14163,0.35671 3.45828,0.94337 3.94995,1.75998 0.49165,0.81671 0.74831,2.12335 0.76999,3.91995 0.08,1.57502 0.13998,4.20499 0.17999,7.8899 0.04,3.68499 0.06,6.89494 0.06,9.62988 z" />
      <path
         inkscape:connector-curvature="0"
         id="path11204"
         style="font-weight:bold;text-align:center;text-anchor:middle;font-family:Garamond Premr Pro;-inkscape-font-specification:Garamond Premr Pro Bold"
         d="m 320.68476,257.07659 c -0.002,3.54664 -0.0383,7.03326 -0.11,10.45986 -0.0717,3.42664 -0.16834,5.91327 -0.28999,7.45991 -0.0833,1.83331 -0.39667,3.16663 -0.93999,3.99994 -0.54333,0.83333 -1.77665,1.44665 -3.69995,1.83998 -1.59998,0.33333 -2.39997,0.78666 -2.39997,1.35998 -0.008,0.29167 0.14833,0.54833 0.46999,0.76999 0.32166,0.22166 0.85832,0.33833 1.60998,0.35 1.39831,-0.007 2.48163,-0.0333 3.24996,-0.08 0.76831,-0.0467 1.71163,-0.0733 2.82996,-0.08 1.18664,0.02 2.93328,0.1 5.23994,0.24 2.30661,0.13999 4.53325,0.21999 6.67991,0.23999 0.50997,-0.003 0.98996,-0.0967 1.43998,-0.27999 0.44997,-0.18334 0.68997,-0.43667 0.71999,-0.75999 0.003,-0.28667 -0.16335,-0.55333 -0.49999,-0.79999 -0.33669,-0.24666 -0.86335,-0.43333 -1.57998,-0.56 -2.50332,-0.47165 -4.09663,-1.20831 -4.77994,-2.20997 -0.68334,-1.00165 -1.03667,-2.55829 -1.05999,-4.66994 -0.08,-1.34163 -0.14001,-3.09828 -0.18,-5.26993 -0.04,-2.17162 -0.06,-4.38826 -0.06,-6.64991 -0.005,-7.67488 0.025,-13.2248 0.09,-16.64979 0.065,-3.42491 0.19498,-5.71488 0.38999,-6.86991 0.0533,-1.09827 0.32665,-2.10159 0.81999,-3.00996 0.49331,-0.90828 1.84662,-1.6116 4.05995,-2.10997 0.64664,-0.12162 1.15329,-0.29829 1.51998,-0.53 0.36664,-0.23161 0.5533,-0.50827 0.55999,-0.82999 -0.003,-0.31994 -0.17669,-0.55994 -0.51999,-0.71999 -0.34336,-0.15994 -0.83668,-0.23994 -1.47998,-0.23999 -1.33667,0.0101 -2.62332,0.05 -3.85996,0.11999 -1.23666,0.07 -2.80331,0.11005 -4.69993,0.12 -1.38833,-0.01 -2.91164,-0.05 -4.56995,-0.12 -1.65832,-0.07 -3.04163,-0.10995 -4.14994,-0.11999 -0.57333,5e-5 -1.04666,0.08 -1.41998,0.23999 -0.37333,0.16005 -0.56666,0.40005 -0.57999,0.71999 -0.0167,0.28505 0.13666,0.55505 0.45999,0.80999 0.32333,0.25505 0.91665,0.46505 1.77998,0.62999 2.14163,0.35671 3.45828,0.94337 3.94995,1.75998 0.49165,0.81671 0.74831,2.12335 0.76999,3.91995 0.08,1.57502 0.13998,4.20499 0.17999,7.8899 0.04,3.68499 0.06,6.89494 0.06,9.62988 z" />
      <path
         inkscape:connector-curvature="0"
         id="path11206"
         style="font-weight:bold;text-align:center;text-anchor:middle;font-family:Garamond Premr Pro;-inkscape-font-specification:Garamond Premr Pro Bold"
         d="m 349.90351,257.07659 c -0.002,3.54664 -0.0383,7.03326 -0.11,10.45986 -0.0717,3.42664 -0.16834,5.91327 -0.28999,7.45991 -0.0833,1.83331 -0.39667,3.16663 -0.93999,3.99994 -0.54333,0.83333 -1.77665,1.44665 -3.69995,1.83998 -1.59998,0.33333 -2.39997,0.78666 -2.39997,1.35998 -0.008,0.29167 0.14833,0.54833 0.46999,0.76999 0.32166,0.22166 0.85832,0.33833 1.60998,0.35 1.39831,-0.007 2.48163,-0.0333 3.24996,-0.08 0.76831,-0.0467 1.71163,-0.0733 2.82996,-0.08 1.18664,0.02 2.93328,0.1 5.23994,0.24 2.30661,0.13999 4.53325,0.21999 6.67991,0.23999 0.50997,-0.003 0.98996,-0.0967 1.43998,-0.27999 0.44997,-0.18334 0.68997,-0.43667 0.71999,-0.75999 0.003,-0.28667 -0.16335,-0.55333 -0.49999,-0.79999 -0.33669,-0.24666 -0.86335,-0.43333 -1.57998,-0.56 -2.50332,-0.47165 -4.09663,-1.20831 -4.77994,-2.20997 -0.68334,-1.00165 -1.03667,-2.55829 -1.05999,-4.66994 -0.08,-1.34163 -0.14001,-3.09828 -0.18,-5.26993 -0.04,-2.17162 -0.06,-4.38826 -0.06,-6.64991 -0.005,-7.67488 0.025,-13.2248 0.09,-16.64979 0.065,-3.42491 0.19498,-5.71488 0.38999,-6.86991 0.0533,-1.09827 0.32665,-2.10159 0.81999,-3.00996 0.49331,-0.90828 1.84662,-1.6116 4.05995,-2.10997 0.64664,-0.12162 1.15329,-0.29829 1.51998,-0.53 0.36664,-0.23161 0.5533,-0.50827 0.55999,-0.82999 -0.003,-0.31994 -0.17669,-0.55994 -0.51999,-0.71999 -0.34336,-0.15994 -0.83668,-0.23994 -1.47998,-0.23999 -1.33667,0.0101 -2.62332,0.05 -3.85996,0.11999 -1.23666,0.07 -2.80331,0.11005 -4.69993,0.12 -1.38833,-0.01 -2.91164,-0.05 -4.56995,-0.12 -1.65832,-0.07 -3.04163,-0.10995 -4.14994,-0.11999 -0.57333,5e-5 -1.04666,0.08 -1.41998,0.23999 -0.37333,0.16005 -0.56666,0.40005 -0.57999,0.71999 -0.0167,0.28505 0.13666,0.55505 0.45999,0.80999 0.32333,0.25505 0.91665,0.46505 1.77998,0.62999 2.14163,0.35671 3.45828,0.94337 3.94995,1.75998 0.49165,0.81671 0.74831,2.12335 0.76999,3.91995 0.08,1.57502 0.13998,4.20499 0.17999,7.8899 0.04,3.68499 0.06,6.89494 0.06,9.62988 z" />
    </g>
    <g
       id="flowRoot11191"
       style="font-size:80px;font-style:normal;font-variant:normal;font-weight:normal;font-stretch:normal;text-align:start;line-height:0%;letter-spacing:0px;word-spacing:0px;text-anchor:start;fill:#000000;fill-opacity:1;stroke:none;font-family:Copperplate Gothic Bold;-inkscape-font-specification:Copperplate Gothic Bold"
       transform="matrix(1.3802484,0,0,1.3802484,135.14853,-212.9483)">
      <path
         inkscape:connector-curvature="0"
         id="path11209"
         style="font-weight:bold;text-align:center;text-anchor:middle;font-family:Garamond Premr Pro;-inkscape-font-specification:Garamond Premr Pro Bold"
         d="m 244.56857,231.71691 c -1.235,-0.01 -2.58498,-0.05 -4.04995,-0.12 -1.46499,-0.07 -3.07497,-0.10995 -4.82994,-0.11999 -0.65333,5e-5 -1.18665,0.08 -1.59998,0.23999 -0.41333,0.16005 -0.62666,0.40005 -0.63999,0.71999 -0.0167,0.27672 0.11666,0.52338 0.4,0.73999 0.28332,0.21672 0.81665,0.42338 1.59998,0.62 1.73997,0.42171 2.99995,1.01836 3.77995,1.78997 0.77998,0.77171 1.19997,1.82836 1.25998,3.16996 0.0767,1.0367 0.12332,2.74334 0.14,5.11994 0.0167,2.37667 0.0233,5.44329 0.02,9.19988 -0.0117,7.78492 -0.0883,13.49484 -0.23,17.12978 -0.14167,3.63496 -0.27834,6.00493 -0.40999,7.10991 0.045,0.55333 -0.18501,1.20665 -0.69,1.95997 -0.505,0.75333 -1.79498,1.40665 -3.86994,1.95997 -0.65,0.16667 -1.16999,0.39333 -1.55999,0.67999 -0.39,0.28667 -0.58999,0.59333 -0.59999,0.91999 -0.007,0.24333 0.16666,0.43666 0.52,0.58 0.35332,0.14333 0.92664,0.21666 1.71997,0.21999 0.93165,-0.02 2.3283,-0.1 4.18995,-0.23999 1.86163,-0.14 3.63827,-0.22 5.32993,-0.24 1.51663,0.01 2.90328,0.05 4.15995,0.12 1.25663,0.07 2.40328,0.11 3.43995,0.12 0.7583,-0.01 1.32163,-0.11 1.68998,-0.3 0.36831,-0.19 0.55164,-0.40999 0.54999,-0.65999 -0.005,-0.36333 -0.17502,-0.67666 -0.50999,-0.93999 -0.33502,-0.26333 -0.80501,-0.45666 -1.40998,-0.57999 -2.49665,-0.47499 -4.0433,-1.12498 -4.63994,-1.94998 -0.59668,-0.82498 -0.86334,-1.85497 -0.79999,-3.08996 -0.0306,-0.88788 -0.0761,-2.41872 -0.1363,-4.59253 -0.0603,-2.17379 -0.11162,-4.30314 -0.15407,-6.38807 -0.0425,-2.08489 -0.0524,-3.43795 -0.0296,-4.0592 0.0466,-0.17998 0.13332,-0.37998 0.26,-0.6 0.12665,-0.21997 0.25331,-0.33997 0.38,-0.35999 0.9333,-0.11498 2.12662,-0.18498 3.57995,-0.21 1.45329,-0.025 2.60661,-0.035 3.45995,-0.03 0.8683,0.007 1.85162,0.0534 2.94997,0.14 1.09829,0.0867 1.90161,0.17336 2.40997,0.26 0.75162,0.14502 1.38828,0.45501 1.90997,0.92999 0.52163,0.47501 0.97829,1.445 1.36998,2.90996 0.16497,0.56001 0.35497,0.98 0.57,1.25998 0.21496,0.28002 0.42496,0.42001 0.62999,0.42 0.39996,-0.0217 0.69995,-0.21832 0.89999,-0.59 0.19996,-0.37164 0.29996,-0.7883 0.29999,-1.24998 -0.007,-0.7933 -0.0334,-1.58663 -0.08,-2.37997 -0.0467,-0.7933 -0.0734,-2.10662 -0.08,-3.93995 0.0166,-0.77496 0.0833,-1.66495 0.2,-2.66997 0.11663,-1.00495 0.1833,-1.79494 0.2,-2.36996 0.005,-0.4933 -0.045,-0.90663 -0.15,-1.23999 -0.10503,-0.3333 -0.29503,-0.50663 -0.56999,-0.51999 -0.34837,0.01 -0.63169,0.19003 -0.84999,0.53999 -0.21836,0.35003 -0.4417,0.81002 -0.66999,1.37998 -0.51503,1.32835 -1.06502,2.25167 -1.64998,2.76997 -0.58502,0.51835 -1.47501,0.82168 -2.66997,0.90999 -1.12501,0.0734 -2.89499,0.10669 -5.30993,0.1 -2.41499,-0.007 -4.48496,-0.0133 -6.20992,-0.02 -0.20835,0.0117 -0.39168,-0.21164 -0.54999,-0.67 -0.15835,-0.4583 -0.24168,-1.22162 -0.25,-2.28997 9.7e-4,-1.84488 0.0168,-4.01275 0.0474,-6.50362 0.0306,-2.49079 0.0701,-4.79495 0.11851,-6.9125 0.0484,-2.11746 0.0997,-3.53867 0.15408,-4.26365 0.003,-0.14328 0.11665,-0.33661 0.33999,-0.57999 0.22332,-0.24329 0.53665,-0.39662 0.93999,-0.45999 1.08164,-0.0883 3.01828,-0.13162 5.80993,-0.13 2.7916,0.002 4.98824,0.0984 6.58991,0.28999 1.27495,0.14005 2.24494,0.54004 2.90996,1.19999 0.66496,0.66004 1.29495,1.94002 1.88998,3.83995 0.24329,0.80336 0.51662,1.41669 0.81999,1.83997 0.30329,0.42337 0.61662,0.6367 0.93999,0.64 0.36662,-0.025 0.65329,-0.25496 0.85999,-0.69 0.20662,-0.43495 0.29329,-0.92494 0.25999,-1.46998 -0.055,-1.3716 -0.12503,-2.72825 -0.20999,-4.06994 -0.085,-1.34161 -0.095,-2.59825 -0.03,-3.76995 -0.015,-0.24828 -0.12504,-0.45161 -0.33,-0.61 -0.20504,-0.15828 -0.41503,-0.22161 -0.62999,-0.18999 -0.51336,0.0101 -2.12668,0.05 -4.83994,0.11999 -2.71333,0.07 -5.36663,0.11005 -7.9599,0.12 z" />
      <path
         inkscape:connector-curvature="0"
         id="path11211"
         style="font-weight:bold;text-align:center;text-anchor:middle;font-family:Garamond Premr Pro;-inkscape-font-specification:Garamond Premr Pro Bold"
         d="m 219.77223,369.20819 c 0.0183,0.28839 0.16166,0.55172 0.43,0.78999 0.26832,0.23838 0.55165,0.40171 0.84999,0.49 0.51332,0.12004 1.04664,0.26004 1.59997,0.41999 0.55332,0.16005 1.16665,0.34005 1.83998,0.54 1.65497,0.57337 2.68495,1.38669 3.08996,2.43996 0.40498,1.05337 0.57498,1.78669 0.50999,2.19998 -0.0691,2.21334 -0.26865,5.67996 -0.59851,10.39986 -0.32988,4.71997 -0.69531,9.41324 -1.09628,14.07982 -0.40099,4.66662 -0.74272,8.02658 -1.02517,10.07987 -0.22334,2.21164 -0.69667,3.82829 -1.41998,4.84994 -0.72333,1.02165 -2.27665,1.85831 -4.65994,2.50997 -0.52166,0.13166 -0.91833,0.30833 -1.18999,0.52999 -0.27166,0.22166 -0.40833,0.41833 -0.40999,0.58999 0.0117,0.43166 0.20833,0.72833 0.58999,0.88999 0.38166,0.16166 0.87832,0.23833 1.48998,0.23 1.02165,-0.01 2.0983,-0.05 3.22996,-0.12 1.13164,-0.07 2.18829,-0.11 3.16996,-0.12 1.08331,0.01 2.35662,0.05 3.81995,0.12 1.4633,0.07 2.85661,0.11 4.17995,0.12 0.64997,0 1.16996,-0.08 1.55997,-0.24 0.38998,-0.16 0.58998,-0.39999 0.6,-0.71999 0.02,-0.34833 -0.12002,-0.63166 -0.42,-0.84999 -0.30001,-0.21833 -0.88,-0.44166 -1.73997,-0.66999 -1.97833,-0.57499 -3.28164,-1.30498 -3.90995,-2.18997 -0.62834,-0.88499 -0.95167,-2.31497 -0.96999,-4.28995 -0.0716,-2.636 -0.044,-6.14608 0.083,-10.53023 0.1269,-4.38412 0.3027,-8.54604 0.5274,-12.48577 0.22467,-3.93967 0.44788,-6.56086 0.66962,-7.8636 0.0433,-0.42996 0.11665,-0.64995 0.22,-0.65999 0.10332,-0.01 0.21665,0.13003 0.34,0.41999 1.60162,3.56499 3.73826,8.09493 6.40991,13.58983 2.67161,5.49495 5.14824,10.96487 7.42991,16.40979 0.75329,1.90831 1.36662,3.55162 1.83997,4.92993 0.4733,1.37832 0.84663,2.56164 1.11999,3.54996 0.12497,0.44833 0.29496,0.81165 0.50999,1.08998 0.21497,0.27833 0.44496,0.42166 0.68999,0.43 0.26663,0.0517 0.5333,-0.0317 0.79999,-0.25 0.26663,-0.21833 0.61329,-0.88165 1.03999,-1.98997 0.61162,-1.58165 1.34828,-3.35829 2.20997,-5.32994 0.86162,-1.97163 1.77827,-4.00827 2.74997,-6.10992 1.12488,-2.35254 2.64387,-5.43398 4.55697,-9.24432 1.91302,-3.8103 3.71052,-7.35395 5.39253,-10.63098 1.6819,-3.27696 2.73867,-5.29174 3.17033,-6.04436 0.16161,-0.24496 0.29827,-0.27496 0.40999,-0.09 0.11161,0.18504 0.18828,0.37503 0.23,0.56999 0.0824,1.59903 0.14858,4.60541 0.19851,9.01914 0.0498,4.4138 0.0686,8.8009 0.0563,13.16132 -0.0124,4.36045 -0.0707,7.26016 -0.17481,8.69914 -0.0534,1.47499 -0.28672,2.68497 -0.69999,3.62996 -0.41338,0.94499 -1.4067,1.65498 -2.97996,2.12997 -0.57671,0.155 -1.06337,0.345 -1.45999,0.56999 -0.39671,0.225 -0.60337,0.515 -0.61999,0.86999 0.035,0.39666 0.28495,0.68333 0.74999,0.85999 0.46495,0.17666 0.93494,0.26333 1.40998,0.26 0.99827,-0.01 2.06159,-0.05 3.18996,-0.12 1.12827,-0.07 2.09159,-0.11 2.88997,-0.12 1.65658,0.0167 3.58322,0.0833 5.77992,0.2 2.19658,0.11666 3.60322,0.18333 4.21995,0.19999 0.62159,-0.003 1.15825,-0.0967 1.60998,-0.27999 0.45159,-0.18333 0.68825,-0.43666 0.70999,-0.75999 -7e-5,-0.28833 -0.18007,-0.57166 -0.54,-0.84999 -0.36006,-0.27833 -0.90005,-0.50166 -1.61997,-0.66999 -1.86671,-0.49499 -3.15336,-1.10498 -3.85996,-1.82998 -0.70672,-0.72499 -1.15338,-1.95497 -1.33998,-3.68995 -0.15172,-1.03331 -0.36839,-4.3066 -0.64999,-9.81987 -0.28173,-5.51324 -0.43839,-13.78646 -0.46999,-24.81969 0.0283,-2.04659 0.2916,-3.53324 0.78999,-4.45994 0.49826,-0.9266 1.06159,-1.49326 1.68997,-1.69998 0.59493,-0.23828 1.18493,-0.44161 1.76998,-0.60999 0.58493,-0.16828 1.19492,-0.31161 1.82998,-0.42999 0.71659,-0.12329 1.24325,-0.29662 1.57998,-0.52 0.33659,-0.22328 0.50326,-0.47661 0.49999,-0.75999 -0.0217,-0.35161 -0.2384,-0.58827 -0.64999,-0.70999 -0.41173,-0.12161 -0.88839,-0.17828 -1.42998,-0.16999 -0.55506,0.0101 -1.96504,0.05 -4.22995,0.11999 -2.26503,0.07 -4.215,0.11005 -5.84992,0.12 -0.10172,0.0217 -0.25839,0.15838 -0.47,0.41 -0.21172,0.25171 -0.34838,0.48838 -0.40999,0.70999 -0.28172,0.87337 -0.63838,1.80669 -1.06999,2.79996 -0.43171,0.99337 -0.68838,1.60669 -0.76999,1.83998 -0.39275,0.97482 -1.42232,3.10021 -3.08871,6.37616 -1.66648,3.27604 -3.53354,6.89391 -5.60118,10.85361 -2.06772,3.95977 -3.89978,7.45264 -5.49617,10.47862 -1.59648,3.02602 -2.52105,4.77641 -2.77372,5.25118 -0.0934,0.11002 -0.2267,0.13002 -0.39999,0.06 -0.17337,-0.07 -0.3067,-0.16998 -0.4,-0.29999 -0.45336,-0.67603 -1.57335,-2.80835 -3.35996,-6.39696 -1.78667,-3.58857 -3.75998,-7.61716 -5.91992,-12.08577 -2.16,-4.46855 -4.02664,-8.36084 -5.59993,-11.67688 -0.76667,-1.62327 -1.35333,-2.89659 -1.75997,-3.81996 -0.40669,-0.92327 -0.83335,-2.07659 -1.27999,-3.45995 -0.0617,-0.21828 -0.19835,-0.44161 -0.40999,-0.66999 -0.21169,-0.22828 -0.36835,-0.35162 -0.47,-0.37 -2.15165,-0.007 -3.86829,-0.0333 -5.14993,-0.08 -1.28166,-0.0466 -3.1383,-0.0733 -5.56993,-0.08 -0.86666,-0.0166 -1.47332,0.0167 -1.81998,0.1 -0.34666,0.0834 -0.51333,0.31672 -0.49999,0.69999 z" />
      <path
         inkscape:connector-curvature="0"
         id="path11213"
         style="font-weight:bold;text-align:center;text-anchor:middle;font-family:Garamond Premr Pro;-inkscape-font-specification:Garamond Premr Pro Bold"
         d="m 223.41346,517.83788 c -0.025,-1.96161 -0.45504,-3.83825 -1.28999,-5.62993 -0.83502,-1.7916 -1.92501,-3.24825 -3.26995,-4.36995 -1.59835,-1.29493 -3.48166,-2.18492 -5.64993,-2.66996 -2.16833,-0.48495 -4.63163,-0.71494 -7.3899,-0.68999 -2.245,0.0167 -4.57497,0.0834 -6.98992,0.19999 -2.41498,0.11672 -4.40495,0.18339 -5.96992,0.2 -0.76666,5e-5 -1.41332,5e-5 -1.93997,0 -0.52667,5e-5 -1.37333,5e-5 -2.53997,0 -0.85999,0.005 -1.43999,0.095 -1.73998,0.27 -0.3,0.17505 -0.44,0.40504 -0.41999,0.68999 0.005,0.31671 0.17499,0.58338 0.50999,0.79999 0.33499,0.21671 0.80498,0.40338 1.40998,0.55999 1.74831,0.36671 2.93162,0.77337 3.54996,1.21999 0.61831,0.4467 0.98164,1.37336 1.08998,2.77996 0.15999,1.54169 0.27999,4.17832 0.36,7.9099 0.08,3.73165 0.11999,8.66825 0.12,14.80981 -0.01,2.60165 -0.07,5.51828 -0.18,8.74989 -0.11001,3.23163 -0.21001,5.56826 -0.3,7.00991 -0.10167,1.45331 -0.55833,2.46663 -1.36998,3.03996 -0.81167,0.57333 -2.08831,1.10665 -3.82995,1.59998 -0.52833,0.18499 -0.95166,0.35499 -1.26998,0.50999 -0.31834,0.155 -0.48167,0.38499 -0.49,0.68999 0.0217,0.39666 0.23833,0.68333 0.65,0.85999 0.41165,0.17666 0.88831,0.26333 1.42998,0.26 0.56498,-0.0133 1.57497,-0.0667 3.02996,-0.16 1.45497,-0.0933 2.60495,-0.14667 3.44995,-0.16 2.59996,0.02 4.57993,0.1 5.93993,0.24 1.35996,0.13999 2.81994,0.21999 4.37994,0.23999 0.25497,0.007 0.62497,-0.0667 1.10998,-0.21999 0.48498,-0.15333 0.75497,-0.42666 0.81,-0.81999 0.005,-0.20667 -0.14503,-0.43333 -0.45,-0.68 -0.30502,-0.24666 -0.79501,-0.47332 -1.46998,-0.67999 -1.835,-0.39832 -3.08498,-0.98165 -3.74995,-1.74997 -0.66501,-0.76832 -1.01501,-1.97164 -1.04999,-3.60996 -0.081,-1.63503 -0.15014,-3.61821 -0.2074,-5.94955 -0.0573,-2.33131 -0.0968,-4.48042 -0.11852,-6.44732 -0.0218,-1.96687 -0.0198,-3.22117 0.006,-3.76292 0.005,-0.14497 0.095,-0.33497 0.26999,-0.56999 0.17498,-0.23498 0.40498,-0.36497 0.68999,-0.39 1.26663,0.0234 2.47328,0.15669 3.61996,0.4 1.14663,0.24335 1.83328,0.45668 2.05997,0.63999 0.27331,0.20169 0.72663,0.69835 1.35998,1.48998 0.6333,0.79168 1.24663,1.62834 1.83998,2.50997 1.64495,2.59165 3.37493,5.24828 5.18993,7.9699 1.81495,2.72164 3.44492,5.07827 4.88994,7.06991 1.22328,1.51164 2.81659,2.74829 4.77994,3.70995 1.96326,0.96165 3.91657,1.45831 5.85992,1.48998 0.85828,0.002 1.6816,-0.0417 2.46997,-0.13 0.78827,-0.0883 1.4316,-0.23167 1.92998,-0.42999 0.25661,-0.11834 0.50327,-0.26167 0.73998,-0.43 0.23662,-0.16833 0.36328,-0.37166 0.38,-0.60999 -0.0134,-0.17666 -0.14672,-0.38333 -0.39999,-0.61999 -0.25339,-0.23667 -0.54672,-0.40333 -0.87999,-0.5 -1.7317,-0.35166 -3.20834,-0.90832 -4.42995,-1.66998 -1.22169,-0.76165 -2.35834,-1.7783 -3.40995,-3.04996 -1.67459,-1.9012 -3.40988,-4.13425 -5.20586,-6.69917 -1.79606,-2.56489 -3.36543,-4.93424 -4.70809,-7.10806 -1.34273,-2.17377 -2.17136,-3.62462 -2.48589,-4.35253 -0.0717,-0.17997 -0.0684,-0.39997 0.01,-0.65999 0.0783,-0.25998 0.18163,-0.43997 0.30999,-0.54 0.3233,-0.21664 0.75663,-0.4633 1.29999,-0.73999 0.54329,-0.27663 0.93662,-0.4833 1.17998,-0.61999 1.98494,-1.24662 3.55492,-2.87327 4.70994,-4.87994 1.15495,-2.0066 1.74494,-4.11324 1.76998,-6.31991 z m -7.11991,0.15999 c -0.085,2.53334 -0.69502,4.64664 -1.82998,6.33992 -1.13501,1.69334 -2.285,2.88666 -3.44995,3.57996 -0.61669,0.40168 -1.84334,0.83834 -3.67995,1.30998 -1.83667,0.47168 -3.94331,0.72835 -6.31992,0.76999 -0.25335,-0.01 -0.50668,-0.12997 -0.75999,-0.36 -0.25335,-0.22997 -0.42668,-0.50996 -0.52,-0.83999 -0.077,-0.61823 -0.10964,-2.30611 -0.0978,-5.06363 0.0118,-2.75746 0.0504,-5.59496 0.11555,-8.51249 0.0652,-2.91745 0.13924,-4.92532 0.22222,-6.02362 0.015,-0.19995 0.12498,-0.49995 0.33,-0.89999 0.20498,-0.39995 0.41497,-0.65995 0.62999,-0.77999 0.51997,-0.19828 1.21996,-0.34162 2.09997,-0.43 0.87997,-0.0883 1.45996,-0.13161 1.73998,-0.12999 1.32996,0.0117 2.72994,0.28837 4.19994,0.82998 1.46996,0.54171 2.70994,1.27837 3.71996,2.20998 1.16495,1.22836 2.05494,2.61167 2.66996,4.14994 0.61496,1.53836 0.92496,2.82167 0.92999,3.84995 z" />
    </g>
  </g>
  <g
          transform="matrix(1,0,0,1.0010303,-0.25002,-0.34035)"
     id="g3195">
    <path
       inkscape:connector-curvature="0"
       d="m 299.99993,658.50015 c 0,0 298.5001,-112.32031 298.5001,-397.77183 0,-285.451511 0,-258.55169 0,-258.55169 l -597.00007,0 0,258.55169 c 0,285.45152 298.49997,397.77183 298.49997,397.77183 z"
       id="path2875"
       style="opacity:0.8;fill:url(#radialGradient11238-1);fill-opacity:1;fill-rule:evenodd;stroke:none;display:inline;enable-background:new" />
    <path
       inkscape:connector-curvature="0"
       d="m 299.99999,658.50028 c 0,0 -298.49999,-112.32036 -298.49999,-397.772 0,-285.451614 0,-258.5517822 0,-258.5517822 l 596.99999,0 0,258.5517822 c 0,285.45164 -298.5,397.772 -298.5,397.772 z"
       id="path1411"
       style="fill:none;stroke:#000000;stroke-width:2.99845624;stroke-linecap:butt;stroke-linejoin:miter;stroke-miterlimit:4;stroke-opacity:1;stroke-dasharray:none" />
  </g>
</svg>
